PathFileType	4	(X/Y/Z)	59_2_91_p1_0-666_filt_butterworth.trc
DataRate	CameraRate	NumFrames	NumMarkers	Units	OrigDataRate	OrigDataStartFrame	OrigNumFrames
52.0	52.0	5	27	m	52.0	83	666
Frame#	Time	RHip			RKnee			RAnkle			RBigToe			RSmallToe			RHeel			LHip			LKnee			LAnkle			LBigToe			LSmallToe			LHeel			Neck			Head			Nose			RShoulder			RElbow			RWrist			RThumb			RIndex			RPinky			LShoulder			LElbow			LWrist			LThumb			LIndex			LPinky			
		X1	Y1	Z1	X2	Y2	Z2	X3	Y3	Z3	X4	Y4	Z4	X5	Y5	Z5	X6	Y6	Z6	X7	Y7	Z7	X8	Y8	Z8	X9	Y9	Z9	X10	Y10	Z10	X11	Y11	Z11	X12	Y12	Z12	X13	Y13	Z13	X14	Y14	Z14	X15	Y15	Z15	X16	Y16	Z16	X17	Y17	Z17	X18	Y18	Z18	X19	Y19	Z19	X20	Y20	Z20	X21	Y21	Z21	X22	Y22	Z22	X23	Y23	Z23	X24	Y24	Z24	X25	Y25	Z25	X26	Y26	Z26	X27	Y27	Z27	
83	1.5961538461538465	0.3318585849061845	0.5332325692293487	1.0587035966494942	0.31488631911924414	0.653772518277088	1.49079113792662	0.2981894229167039	0.7875596804932442	1.9032214919360217	0.2827164820693851	0.5568481992355084	1.9369798114077696	0.3367788256850657	0.5963565136509177	1.9368220361960322	0.28655695170087475	0.8451408156516709	1.963544993639295	0.09750066675259068	0.5648238035783828	1.0609890456610107	0.11057374337583886	0.6573458968442771	1.489786208742887	0.1253385203419442	0.7423682649560697	1.8765531513689826	0.12632448106381763	0.5535249811029376	1.922898014187522	0.07008549973550803	0.6211709891434057	1.9301369468240785	0.1451145514984143	0.8235326569631906	1.9246641811824239	0.22722119720532064	0.4514781311717392	0.4830173860967023	0.24405987073426724	0.36486480608139643	0.23258492708035416	0.24585793055670718	0.3486561038619276	0.3694524761345232	0.3979083083087386	0.4880033418770607	0.6145647524651825	0.41677867805344515	0.4872979999768646	0.8884532201945741	0.32907334865212945	0.3734287064444675	1.0939895594223201	0.2245690498689654	0.3455271652715483	1.180586408066744	0.22337424689847285	0.37095684847773935	1.190650138570167	0.2658321359924775	0.3773235823816796	1.1980679195801216	0.0667167248621147	0.45003673796897514	0.5941278441593161	0.023244063555762966	0.4560767108897182	0.8762622581495242	0.10849120988265772	0.37474716064338714	1.068562722943912	0.20470485552001216	0.3786204374933923	1.1360106909378145	0.2067992232928638	0.3856943851716322	1.1685125914372911	0.18066230258228122	0.4072063601530716	1.1801309332452765
84	1.6153846153846154	0.33178191998827566	0.5331031403259898	1.058122054503175	0.31572053568265845	0.6522642405449312	1.4872225416765041	0.2982111404166361	0.787500886319453	1.903264613672511	0.2814711954302496	0.5508319387930984	1.934270240661664	0.33668450064337185	0.5967595614143286	1.9360705390613737	0.28647055656439707	0.8455837835758123	1.9635778580615988	0.09832561507757254	0.5642244725093574	1.0618089913196613	0.11074603992890612	0.655815877880549	1.4848556471968788	0.12714867684200648	0.7427229457202701	1.8783569051667097	0.12511252765162986	0.5480205239389605	1.9204108874959913	0.0701009462182962	0.6211402090520668	1.93009153409373	0.14514417695875031	0.8237006465957322	1.924525549608095	0.2272260135109755	0.45155979135113605	0.48298186725048103	0.24392770027045713	0.3650389295212745	0.23190820794381764	0.24557396878676474	0.3495754733743709	0.36752141404293154	0.3982456457073573	0.4869112990399789	0.6142907797037604	0.41724356408931296	0.4878782511537223	0.8842713561661466	0.3328500420407152	0.3742575344144026	1.0915254767448974	0.23402468424436387	0.3386157761236667	1.179195477116231	0.23581187001777937	0.36032735182889225	1.1914924739001094	0.27600643527885527	0.37025377523362657	1.196509405813149	0.06901671015433	0.45424464992971897	0.5940861509306357	0.023540448330536326	0.4564649620519583	0.8746221934838171	0.10511571545522945	0.3748973194374567	1.0698499076083299	0.20152987546751072	0.3867780306805715	1.1424432250050138	0.2047124692371296	0.3895181534919551	1.1731457667869172	0.16823831156666022	0.40647087632661244	1.1874693235864051
85	1.6346153846153846	0.33171346206107627	0.5329623962576996	1.058015636346346	0.317350152551867	0.651854128912007	1.4854313894267308	0.29818792825312784	0.787655302722069	1.903364322445394	0.27992210569945525	0.5401141098222919	1.9296216207149604	0.3364531679355489	0.5972742914204148	1.9354681372918998	0.2863867133926621	0.8459872422955996	1.9632960740093592	0.0986505694102731	0.562161751756758	1.0632626959134202	0.11096611043762522	0.6541514963455168	1.4808724412167884	0.12833405281725038	0.7420045688728127	1.8791858731965159	0.12428552452114205	0.543923275473586	1.9190140453725644	0.07012695717988834	0.6210640785788828	1.930051718148493	0.145179965622245	0.823755021105581	1.9245302031335934	0.22722059150026985	0.45156438281024786	0.4829192595582328	0.24382337672334692	0.3647920477834008	0.23101436552382199	0.24555865405797594	0.34930602649665665	0.36573236022759525	0.39924830060098104	0.48257632900623776	0.6128883323958491	0.41867797274734053	0.49038825434451666	0.8791046359314376	0.3369684948239936	0.3810282607063683	1.0898117472286617	0.24632647332149374	0.33877426623563217	1.1783351657618208	0.2516467291558526	0.35335245409932925	1.1921871845892782	0.29222703280491047	0.36925884131204334	1.195224260302203	0.07029793429798441	0.4556633678650137	0.5940757517317908	0.022922754202479932	0.4557669380652928	0.8717769457490918	0.1011118524951106	0.374643770213688	1.0709862511476969	0.19549359775574704	0.39789493585152597	1.1535346484050037	0.19655673158695366	0.3919917402336053	1.1798849811389753	0.14724293316745884	0.39874762112176604	1.1952070412829257
86	1.6538461538461535	0.33167916402027886	0.5331429869492594	1.0591813706584745	0.3194866428241169	0.6524161556723947	1.485454353791236	0.29804485028476996	0.7881618521842604	1.9034164156794333	0.278914637047794	0.532843815998542	1.9265306647141198	0.336228636287604	0.597587956351255	1.934910690110954	0.2863519189054297	0.8461182263879226	1.9623321067153427	0.09796232935355366	0.559980551993756	1.06507207115587	0.11072436677272962	0.6530016775670269	1.4791273818121984	0.12873551846306502	0.7417644387207216	1.8793657682232243	0.12417176737236695	0.5422189203468432	1.9196021948134705	0.07015217654825863	0.6209377679475421	1.9300314331753055	0.1452427016649214	0.8236594796001355	1.9246850124850823	0.22721117534762653	0.45153684558477686	0.48285041120323163	0.24381723465438154	0.3640503237867318	0.2298906340002445	0.24545971713344764	0.34875674691564007	0.36474358811609287	0.40045627111252735	0.47614637476857047	0.610420246686791	0.42057825356403217	0.4942888275563302	0.8745451104858073	0.342649761997497	0.3946686217887139	1.0902152588983534	0.25912282334854664	0.34830720629542605	1.1787808239848088	0.2679324566681419	0.35732593985445976	1.1939409103834688	0.31079605858778553	0.3782191320110995	1.1962348016140951	0.07051901408968564	0.45549864360009223	0.5940819811073808	0.021413395195188735	0.45385719066790087	0.8679742919888213	0.09699341595071874	0.3742744879258408	1.0716798206763691	0.18378813592580906	0.4045585469038183	1.1661476977324359	0.17819014907033864	0.39222523615393784	1.1871874388549797	0.12395672882917537	0.3864351105675289	1.1998267284562105
87	1.6730769230769231	0.3316132504457825	0.5341558242782337	1.0626884363349622	0.3209226836052155	0.6527767225003543	1.4858743130323018	0.29781295066847374	0.7887215812508865	1.9033508193457385	0.27883508214870995	0.5306900050203215	1.9256248947269565	0.33655221579161776	0.5976660229520523	1.9346315247485442	0.28633831361797496	0.8460436515605841	1.9609126768906466	0.09714468906584628	0.5586768300826216	1.068248245063074	0.10992717986470979	0.6525602291030929	1.479984408812102	0.12826143052912198	0.7416431743889546	1.8792802175184582	0.1244206213526265	0.5416708247437706	1.9212330246014357	0.07015863582528055	0.6207939753351553	1.9300192101330549	0.14517581402785376	0.8233218367146543	1.924868258339031	0.22720909901651917	0.4515550736812899	0.48280907835711184	0.24385717157435285	0.36342703437422985	0.22909527319970496	0.24528535030770893	0.34826813278622415	0.36427357480878225	0.4010654609351999	0.4713376649775151	0.6083096069321983	0.4218658197386924	0.4975678780322238	0.8722271131658206	0.34989534856086196	0.41112902103300486	1.0926348463207503	0.2708810786430114	0.3625788865035552	1.1805085289281216	0.28244097320267225	0.36965958884582223	1.196826717242568	0.3272147650315783	0.3949903356438796	1.200784916514585	0.0703506770791354	0.4551971058489799	0.5940871871264678	0.01956474604800567	0.45187852115237814	0.8650028066797238	0.09301306617923079	0.37514090549375784	1.0721435780035435	0.16682521368951014	0.40235972463687175	1.1742839765752215	0.15221175786783736	0.3904319150294651	1.1935778952331604	0.10594253735996328	0.3778593679737997	1.20080528511307
